# xmcd
#
# Track frame offsets:
#  150
#  15998
#  35820
#  52968
#  70294
#  87469
#  102384
#  119669
#  133919
#  147813
#  163253
#  177437
#  187884
#
# Disc length: 2791 seconds
#
# Revision: 0
# Processed by: cddbd v1.5.2PL0 Copyright (c) Steve Scherf et al.
# Submitted via: AltoMP3_Maker 3.0
#
DISCID=bd0ae50d
DTITLE=Lou Bradley - Love Someone
DYEAR=1900
DGENRE=Country
TTITLE0=Too Far Gone
TTITLE1=Small Town Blues
TTITLE2=One Shoe
TTITLE3=Love Someone
TTITLE4=Open Up Your Door
TTITLE5=Falling Out Of Love Again
TTITLE6=Apples And Grapes
TTITLE7=Old Fashioned Girl
TTITLE8=Way Up High
TTITLE9=No Pleasing You
TTITLE10=Edith (Ode To Edith Falls)
TTITLE11=Forget About Me
TTITLE12=Them Old Hills
EXTD=
EXTT0=
EXTT1=
EXTT2=
EXTT3=
EXTT4=
EXTT5=
EXTT6=
EXTT7=
EXTT8=
EXTT9=
EXTT10=
EXTT11=
EXTT12=
PLAYORDER=
